<svg width="64" height="64" viewBox="0 0 64 64" fill="none" xmlns="http://www.w3.org/2000/svg">
  <rect x="4" y="6" width="56" height="52" rx="10" fill="#111827" stroke="#374151"/>
  <rect x="4" y="6" width="56" height="10" rx="10" fill="#1F2937"/>
  <circle cx="11" cy="11" r="1.5" fill="#F87171"/>
  <circle cx="16" cy="11" r="1.5" fill="#FBBF24"/>
  <circle cx="21" cy="11" r="1.5" fill="#34D399"/>
  <path d="M25 27C25 23.6863 27.6863 21 31 21H36C39.3137 21 42 23.6863 42 27V30H30C27.2386 30 25 32.2386 25 35V27Z" fill="#3776AB"/>
  <path d="M39 37C39 40.3137 36.3137 43 33 43H28C24.6863 43 22 40.3137 22 37V34H34C36.7614 34 39 31.7614 39 29V37Z" fill="#FFD43B"/>
  <circle cx="33" cy="26" r="1.3" fill="white"/>
  <circle cx="28" cy="38" r="1.3" fill="#1F2937"/>
</svg>
